<?xml version="1.0" standalone="no"?>
<!DOCTYPE svg PUBLIC "-//W3C//DTD SVG 20010904//EN"
        "http://www.w3.org/TR/2001/REC-SVG-20010904/DTD/svg10.dtd">
<svg version="1.0" xmlns="http://www.w3.org/2000/svg"
     width="788.000000pt" height="788.000000pt" viewBox="0 0 788.000000 788.000000"
     preserveAspectRatio="xMidYMid meet">
    <metadata>
        Created by potrace 1.14, written by Peter Selinger 2001-2017
    </metadata>
    <g transform="translate(0.000000,788.000000) scale(0.100000,-0.100000)"
       fill="#000000" stroke="none">
        <path d="M115 7585 c-39 -18 -56 -33 -85 -75 l-25 -35 0 -3514 c0 -2533 3
-3527 11 -3558 13 -51 42 -85 93 -110 34 -16 214 -17 3596 -18 3833 -1 3607
-4 3621 49 11 45 0 284 -14 298 -11 11 -655 13 -3477 16 -3289 2 -3465 3
-3465 20 -4 155 0 6564 4 6570 3 5 1427 9 3298 9 l3293 0 0 -665 0 -664 25
-21 c31 -27 306 -131 326 -123 22 8 21 1670 -1 1723 -21 50 -42 72 -90 94 -39
18 -165 19 -3560 18 -3007 0 -3524 -2 -3550 -14z"/>
        <path d="M1248 4448 c-17 -3 -37 -13 -43 -21 -11 -15 -13 -1884 -2 -1982 42
-369 196 -592 485 -701 131 -50 261 -69 472 -68 261 1 421 37 580 130 172 101
298 296 335 524 4 25 9 54 11 65 2 11 7 58 10 105 9 117 9 1890 0 1917 -4 12
-16 25 -28 29 -36 11 -455 7 -477 -6 -12 -6 -22 -21 -22 -33 -1 -12 -3 -449
-4 -972 -1 -522 -5 -968 -8 -990 -20 -125 -63 -212 -130 -265 -38 -30 -111
-60 -165 -68 -82 -12 -227 -5 -280 12 -113 38 -192 119 -221 226 -6 25 -15 56
-18 70 -4 14 -8 464 -10 1000 -2 536 -5 985 -8 997 -3 13 -16 25 -30 29 -34 9
-407 11 -447 2z"/>
        <path d="M3972 4450 c-50 -3 -76 -10 -82 -20 -13 -19 -12 82 -12 -1377 -1
-1238 -1 -1273 18 -1294 19 -21 21 -21 469 -16 247 2 459 7 471 10 12 3 45 8
75 12 68 9 201 47 274 80 304 134 480 441 532 925 10 96 10 605 0 690 -42 346
-125 567 -269 721 -128 138 -294 213 -558 254 -96 15 -762 26 -918 15z m683
-434 c144 -11 248 -52 324 -128 133 -133 185 -350 185 -773 0 -270 -11 -389
-49 -541 -32 -125 -69 -198 -137 -267 -98 -99 -198 -130 -418 -131 l-145 -1 0
920 c0 718 2 921 12 925 15 6 118 4 228 -4z"/>
        <path d="M6463 4449 c-24 -3 -46 -9 -50 -13 -5 -4 -9 -603 -11 -1332 -2 -1315
-2 -1324 18 -1344 20 -20 32 -20 713 -20 581 0 696 2 712 14 18 13 20 28 20
200 0 137 -4 189 -13 198 -10 10 -117 14 -465 18 l-452 5 0 383 c0 334 2 382
15 383 8 0 169 1 357 1 278 1 347 4 363 15 19 13 20 25 20 198 0 211 -1 215
-78 216 -26 0 -189 1 -362 2 l-315 2 0 323 c0 210 3 322 10 323 5 0 189 1 407
2 383 2 398 3 417 22 19 20 111 319 111 362 0 11 -6 26 -14 33 -11 8 -183 12
-688 13 -370 1 -692 -1 -715 -4z"/>
    </g>
</svg>
